<svg width="123" height="123" viewBox="0 0 123 123" fill="none" xmlns="http://www.w3.org/2000/svg">
<path d="M30.6849 71.5975H92.0541V61.3693H30.6849V71.5975ZM30.6849 56.2552H92.0541V46.027H30.6849V56.2552ZM30.6849 40.9129H92.0541V30.6847H30.6849V40.9129ZM112.511 112.51L92.0541 92.0539H20.4567C17.644 92.0539 15.2361 91.0524 13.2331 89.0494C11.23 87.0463 10.2285 84.6385 10.2285 81.8257V20.4565C10.2285 17.6437 11.23 15.2358 13.2331 13.2328C15.2361 11.2298 17.644 10.2283 20.4567 10.2283H102.282C105.095 10.2283 107.503 11.2298 109.506 13.2328C111.509 15.2358 112.511 17.6437 112.511 20.4565V112.51ZM20.4567 81.8257H96.4011L102.282 87.5791V20.4565H20.4567V81.8257Z" fill="#009951"/>
</svg>
